/* XPM */
static char * SW_xpm[] = {
"64 64 298 2",
"  	c #402E17",
". 	c #3E2B15",
"+ 	c #402D17",
"@ 	c #422F18",
"# 	c #412E18",
"$ 	c #423019",
"% 	c #43301B",
"& 	c #43311B",
"* 	c #43311A",
"= 	c #43311C",
"- 	c #44321D",
"; 	c #44331D",
"> 	c #45341E",
", 	c #45331E",
"' 	c #46341F",
") 	c #463520",
"! 	c #453621",
"~ 	c #463621",
"{ 	c #473721",
"] 	c #473621",
"^ 	c #453520",
"/ 	c #473520",
"( 	c #47351E",
"_ 	c #47351F",
": 	c #46341D",
"< 	c #44331C",
"[ 	c #45341D",
"} 	c #45321C",
"| 	c #45331D",
"1 	c #43321C",
"2 	c #42311A",
"3 	c #422F19",
"4 	c #42301A",
"5 	c #42311C",
"6 	c #42311B",
"7 	c #44321C",
"8 	c #43321D",
"9 	c #3D2D1A",
"0 	c #44311B",
"a 	c #432F19",
"b 	c #412E17",
"c 	c #453019",
"d 	c #47341B",
"e 	c #443119",
"f 	c #46321B",
"g 	c #47341C",
"h 	c #49361F",
"i 	c #48351F",
"j 	c #46331A",
"k 	c #45311A",
"l 	c #46331B",
"m 	c #49351E",
"n 	c #4A3620",
"o 	c #4A3720",
"p 	c #4A3721",
"q 	c #4A361E",
"r 	c #48351D",
"s 	c #49351D",
"t 	c #4B3721",
"u 	c #4A3922",
"v 	c #4B3822",
"w 	c #4A3820",
"x 	c #4B3821",
"y 	c #4A3821",
"z 	c #4B3820",
"A 	c #48341C",
"B 	c #48351C",
"C 	c #49361E",
"D 	c #49361D",
"E 	c #47321B",
"F 	c #45321B",
"G 	c #47331C",
"H 	c #48341B",
"I 	c #48351E",
"J 	c #48361E",
"K 	c #48341D",
"L 	c #47341D",
"M 	c #48341E",
"N 	c #402F1B",
"O 	c #453119",
"P 	c #46331C",
"Q 	c #49351F",
"R 	c #4A371F",
"S 	c #463319",
"T 	c #4B371E",
"U 	c #4A361F",
"V 	c #49371E",
"W 	c #45321A",
"X 	c #453118",
"Y 	c #46341C",
"Z 	c #46321A",
"` 	c #3F2E19",
" .	c #47331B",
"..	c #443018",
"+.	c #47331A",
"@.	c #493620",
"#.	c #48331B",
"$.	c #48331C",
"%.	c #47331D",
"&.	c #45311B",
"*.	c #4A371E",
"=.	c #493720",
"-.	c #4B3922",
";.	c #47321A",
">.	c #3E2E1A",
",.	c #453219",
"'.	c #443019",
").	c #463119",
"!.	c #49371F",
"~.	c #3E2D19",
"{.	c #46311A",
"].	c #463219",
"^.	c #48331D",
"/.	c #49341E",
"(.	c #47351D",
"_.	c #46321C",
":.	c #46311B",
"<.	c #483620",
"[.	c #42301C",
"}.	c #48361F",
"|.	c #44311A",
"1.	c #47351C",
"2.	c #49351C",
"3.	c #4B3720",
"4.	c #41311C",
"5.	c #49341C",
"6.	c #412F1B",
"7.	c #4A361D",
"8.	c #412F1A",
"9.	c #42301B",
"0.	c #41301C",
"a.	c #41301B",
"b.	c #42311D",
"c.	c #42311E",
"d.	c #402E1A",
"e.	c #402E19",
"f.	c #402F1A",
"g.	c #402F19",
"h.	c #3F2F1B",
"i.	c #42321E",
"j.	c #41311D",
"k.	c #43311E",
"l.	c #40301B",
"m.	c #3C2D1A",
"n.	c #4B371F",
"o.	c #493820",
"p.	c #4B3A23",
"q.	c #4B3A22",
"r.	c #4A3822",
"s.	c #3F2E1A",
"t.	c #3D2C19",
"u.	c #493721",
"v.	c #48361D",
"w.	c #432F18",
"x.	c #453017",
"y.	c #422E16",
"z.	c #432F17",
"A.	c #442F17",
"B.	c #442F19",
"C.	c #422F17",
"D.	c #3E2D18",
"E.	c #422D15",
"F.	c #442F18",
"G.	c #422E17",
"H.	c #45301A",
"I.	c #3E2C18",
"J.	c #412D17",
"K.	c #49341D",
"L.	c #3F2E1B",
"M.	c #47341E",
"N.	c #46331D",
"O.	c #453018",
"P.	c #47361E",
"Q.	c #48371E",
"R.	c #4B3921",
"S.	c #4C3A22",
"T.	c #4C3921",
"U.	c #493821",
"V.	c #4B3A21",
"W.	c #43321E",
"X.	c #43331F",
"Y.	c #433420",
"Z.	c #43331E",
"`.	c #443421",
" +	c #44331F",
".+	c #44341F",
"++	c #443320",
"@+	c #42331E",
"#+	c #42321F",
"$+	c #443521",
"%+	c #453522",
"&+	c #443420",
"*+	c #3E2F1E",
"=+	c #423320",
"-+	c #433320",
";+	c #4C3A23",
">+	c #4C3922",
",+	c #4E3B25",
"'+	c #4C3A24",
")+	c #4D3B25",
"!+	c #4B3924",
"~+	c #4A3923",
"{+	c #4B3923",
"]+	c #4A381F",
"^+	c #47321C",
"/+	c #43301A",
"(+	c #442F16",
"_+	c #44301A",
":+	c #3D2A16",
"<+	c #402B15",
"[+	c #433018",
"}+	c #432E18",
"|+	c #48371F",
"1+	c #483720",
"2+	c #4A3722",
"3+	c #493621",
"4+	c #4A3621",
"5+	c #412F19",
"6+	c #41301A",
"7+	c #422F1A",
"8+	c #43311D",
"9+	c #422F1B",
"0+	c #42321D",
"a+	c #433019",
"b+	c #3D2D19",
"c+	c #46341E",
"d+	c #46351F",
"e+	c #44321B",
"f+	c #402D16",
"g+	c #46351E",
"h+	c #42331F",
"i+	c #453623",
"j+	c #443523",
"k+	c #453622",
"l+	c #433421",
"m+	c #443520",
"n+	c #453521",
"o+	c #443522",
"p+	c #443622",
"q+	c #463724",
"r+	c #463824",
"s+	c #463825",
"t+	c #463723",
"u+	c #463622",
"v+	c #3D2F1B",
"w+	c #41321E",
"x+	c #4B3A24",
"y+	c #4C3923",
"z+	c #4C3B25",
"A+	c #4D3C26",
"B+	c #4D3B23",
"C+	c #4B3920",
"D+	c #44341E",
"E+	c #493822",
"F+	c #45331C",
"G+	c #432E17",
"H+	c #413019",
"I+	c #463019",
"J+	c #3F2C15",
"K+	c #483621",
"L+	c #473620",
"M+	c #47341F",
"N+	c #45351F",
"O+	c #45341F",
"P+	c #463620",
"Q+	c #44331E",
"R+	c #46331E",
"S+	c #463521",
"T+	c #3E2F1D",
"U+	c #463420",
"V+	c #473521",
"W+	c #473723",
"X+	c #483722",
"Y+	c #473823",
"Z+	c #463721",
"`+	c #483821",
" @	c #46361F",
".@	c #453420",
"+@	c #41301D",
"@@	c #44301B",
"#@	c #3E2C19",
"$@	c #412D16",
"%@	c #45331B",
"&@	c #3C2B18",
"*@	c #432F1A",
"=@	c #4D3B24",
"-@	c #4E3C25",
";@	c #4E3B24",
">@	c #4B3B25",
",@	c #3D2F1D",
"'@	c #473821",
")@	c #473722",
"!@	c #483823",
"~@	c #493924",
"{@	c #493923",
"]@	c #483923",
"^@	c #493925",
"/@	c #483824",
"  . . + @ # $ # % & & * = % & = - - ; > , > ' ) ! ~ { ] ^ / ( _ : < [ } | 1 & % 2 3 # 4 & 5 6 = * - 7 1 7 1 8 9 ; & 0 = & * a b ",
"c d e f g h i h h j k l m n h o p q h m r r s m h t u v w x y z r d A B C s D h A E F G H I J r K L K I M I L N r I g O f G P O ",
"G K I m r r Q K G G g J I C o h C I I h K I h h R h m g I r r S r T T U r V R C r I I W X C r r g g Y G G Z f ` r A I P g G  .Z ",
" .k ..O G I Q  .+.E f @.#.$.g Z Z l L A L I G %.K A U f I &.G  .C *.o o o =.-.y o U I I W g o r K A l ;.l G %.>.M G G W l g G P ",
"I K G g G  .Z Z E E ,.l Z c O '.'.O O k ).Z F Z H r e O g W +.H s K s L K m r L %.P r !.i C I r A Q h I h K l ~.W {.G ].^./.P g ",
"L %.Z Z G P g r (.G G j l g l G L Y f Z Z G K g m g d  .G d f  .Z ].G g G  .L 4 P  .F _.;._.:.].G P r m I C <.[.!.=.I I I r s r ",
"I C C h }.J I I r m C }.m K I K r I I g L m Q i Q I s K A r r  .;. .G K K C Q g g g A k |.G r G ;._.K L $.1.L ~.L G L r h h C r ",
"I m r m C 2.m C s s s h C h 3.h h I K r g r r C C h I B K K L P  .K r J h R C C n h }.m I r I r m s C h h h !.4.h r I r r J m m ",
"r h C r r L K r 5.g K m q }.r h Q I K K K I r Q m m m s q I m m U C h p y =.U h U !.h }.h h Q C I m h C m h C 6.h C h h h C J r ",
"K K L I m r }.h m s r s h h o U h I m K r C o C s r }.C C 7.s s h !.@.=.=.=.!.=.h m s r h K A %.G A A  .l : K N g A  .K r A g (.",
"8.9.N 4.0.a.0.b.0.a.0.[.0.0.a.b.c.0.6.d.e.f.f.a.8.g.f.0.a.h.5 b.i.i.5 b.j.[.b.k.i.b.c.c.i.i.[.j.0.8.a.l.N 6.a.m.0.l.f.6.g.a.[.0.",
"R o D R n.w o o o w y =.v -.-.-.v x z y o o R y y y o C h [.h y w z p y o y y _ y o.-.p.q.C C C C C h T o C C R w o o w o y =.y ",
"r r m C h I r m r h !.R n =.v -.v =.h !.o R h p =.o p o R j.Q m J I C =.@.o o w r.y p h !.y o h h h C r r s h C h I I r I C R }.",
"K r r r I s r r m I K K K K m I m L K A I m K s I L G A K s.L K /.K m ( I I  .{.f o p C m }.h J L r B A A s r r s r I r C r r A ",
"A s M  .P Y P (.P f :...|.I C C r K $. .l G A C Q C h g l t.E G K g G f $.Z {.W L u.}.G f K d K v.L B s r I r Z g l L g P {.k c ",
"2.g P Z F Z Z l G c w.x.y.z.f #.l Z k A.B.C.k ).r G _.K {.D.Z Z f r (.L f e K _ !.3.o I 1.K  .l  .K d 2.H g f &.l Z l g '.'.O E.",
"B (.l &.Z g {. .G O F.G.B.f K G f k z.F.a f {.).E F k O H.I.f ( h m I  .l ..Z G L I F G l G G  .j r  .s 1.B f k  .f  .G k A.w.J.",
"r r L G H I I r A k F.W A r L L K K L L d g L K.g G L i r L.G M.f N.g %. .O.g l P I r I I I G A L 2.C s A L K l m I s g G ..B.G ",
"s g r y w U m I G P g P.@.h C h C N. .G G L K U C R h Q I d.K %.G K J I E M.m g i C Y I r r L g v.U I r r g =.v o U r A G G (.}.",
"-.-.x u h U C }.@.Q.@.R J h U @.@.J }.h R u.C z o R U p R 0.m I A L B K L $.d G A g K r B r r I -.R.S.q.-.T.-.y h U }.h !.C U U ",
"w R <.u.=.r.y p p o y y y y o =.o C Q =.h C o U.v z y w x b.m !.U m h C m h h I r r h I I =.R.x V.z q.R.o =.=.=.y y o y o o y y ",
"b.a.a.` a.W.X.Y.X.Z.X.`. +.+.+++X.@+j.#+#+i. +`.$+%+.+`.&+*+4.W.i.W.5 b.5 0.a.N N 0.5 5 0.b.4.4.4.8 W.8 b.9.f.` b.W.=+X.X. +-+&+",
"C h C R -.p.p.;+>+-.q.R.R.-.p.;+p.,+;+-.-.>+R.;+'+'+)+'+!+-.~+{+>+z ]+w !.h h h q m C h h =.R v x y o y o q h R C q C R !.=.h U ",
"m m J C m R -.y o =.@.=.=.x x o x v x o o n o =.p o R o x o h o R w R U K }.h h I m C C J C h C h @.D m r K I m s I I s m m m m ",
"E Z &.F  .g I h i g L L r h @.q o @.h i J C I h =.=.!.h I s r m C 7.R q r L g K I M H B h h o C h I L ( _ m i K K I ( L G  .Z W ",
"'.f G k k  .I I L K g ^+|._.P /+4 &.g L G K r I J i r C r m B I C R C r r I Q C A G  .G Z f f k c k _.:. .Z k {.e E K A f f ).{.",
"+.).l w.w.s G @ (+ . ._+w.H.z.:+<+G.:.O ..F.'.k $.K d P W [+{.O d d K  .L r I  . .l A {.,.Z G '. .E %.f g H Z F _+E R ..K g f Z ",
"O Z k f f Z g K ;.f L e O  .g Z l ;.Z Z ..'.c ].L r g K K G A L B B A g g r I I  .l :...B.&.|.c  .L G g P  .G P F  .P G l K Z  .",
"g I K d K L g G G +. .#.A r K r A K  .d  . .K K m r  .K A A g r s s A A  .#.g  .g ^.P f O.l F.l l P  .g L G L I G j I I I g g L ",
"h o o !.!.U m C s r g K I h p u.=.C h h I I C @.!.h Q I K A A B K K A r (.2.m s r r s Z }+L r I I I A G K r h h J R y w !.q h n ",
"o R h h h C h !.h n C h h R R o =.C I s r (.C C V U C D h !.!.!.]+w w R !.h 3.=.!.h C y x R.R.y o w p u.h o h m s w x o C !.@.R ",
"( !.h !.=.h <.<.h J i I i I I ( r M.g P : I !.|+!.=.!.i o R.R.o 1+-.q.u r.r.y u.u.=.u.{+y r.2+=.3+h <.}.4+1+@.}.I _ !.@.I ( i i ",
"- 8 5 = [.4 8.5+g.8.6+7+9.1 8+6+9.7+9+a.0+1 6 [.a.a.a.8.4 6 9.a.a.5 8.[.a+4 6+9.[.b.5+a+b+s.8.a.4.a.a.a.= 7+9.6+6+a.9.6 b.5+2 & ",
"n h h m Q r m r C I R C h m 2.r K B r I U h C C I I r r A r I K g L A $.G G H A I r  .K & | B L ( I A L K g $.d %.G M r I  .K r ",
"=.w h h h C h }.C h R h h I K.r I r C I r B K H K K.K A s s I r I C I D v.h J J J m !.h 7 } 2.s m r r r D I v.C h I C C I o D h ",
"h r I I C r r A I I m h C h 7.h m C R @.i r r C m m C h h I J I C m C M g H 2.h @.m C J - c+C h m C r C m C M g K r J h s C C C ",
"r L l M.B I r C U m C @.J (.K A #.K m U h h I r r m !.C J m n }.y =.@.h h I I h h C K L 4 d+h m J h h x =.h h U I I h h C K L I ",
"I C J r K r r P G W g (.j G l Z ;.K  .L K K L r I K I A G K K g L K  .;.P g L }.o y h m e+| g g g K P L A  .Z f G I h o y h m I ",
"G I O k d K O L _.G K g K O X Z ;.]./.r G A ;.A K G Z f Z r m A G $.E E  .+.L ;.G f K  .& % Z F M.A A %.#.l G G G K l G l L $.L ",
"P g f '.f A l r g I C R w C r m i m =.I r r  .o x o o h h I $.L d K  .f K K s _.l O X ..f+/ C h r G K g r  .Z r K I W E O k O I ",
"G f $.(.^.l g L C q r C x -.v y R C K d f L I h M.m =.g K B G f L G #. .l g G G G g G L /+g+ .I L f l G G G j l L  .G g G G L +.",
"f  .A #.G g K B q R n.!.-.S.x x o w @.=.D R K G K I m L ;.Z K G h I Q h h K A  .G L %. .3 [  .;.E A g m J I h C K A G G L G  . .",
"@+h+-+Y.X.@+Y.i+j+k+i+`.l+`.$+l+`.m+$+n+n+Y.`.`.o+p+q+r+s+t+m+u+@+X.Y.X.0+0+W.v+w+X.X.-+Z.@+Y.i+o+n+i+&+-+&+$+Y.`.&+&+n+m+Y.`.Y.",
"{+-.x+-.'+~+x+x+x+'+y+-.{+;+z+;+'+p.'+p.p.{+-.{+T.{+'+'+)+A+B+B+;+C+y -.y o z D+E+-.x+-.'+~+x+x+x+'+y+-.{+;+z+;+'+p.'+p.p.{+-.y+",
"!.C R p y o o y y o x p y x R y =.o u.@.@.h C Q C R U x -.y x R.-.C+]+o R J h - : C R p y o o y y o x p y x R y =.o u.@.@.h h n ",
"r s C I (.r /.m i s K I I K m J r C r m s K A r r r r I m L  .C R !.R m K B I 7 F+s C I (.r /.m i s K I I K m J r C r m s K K I ",
"_.#. .$.$.l P K K %.K g P K L d P f F  .l l L L I r K $.K k k G K G g d G f P 8.|. . .$.$.l P K K %.K g P K L d P f F  .l l %. .",
"O.'.F.G+F._+Z G %.A g l k ).F O Z k c Z _.f O Z #. .j O f Z }+(.].I @. .f L {.H+3 '.F.G+F._+Z G %.A g l k ).F O Z k c Z _.f O ].",
"f k w.k c  .g L K G $.W k '.H.&._.%.P W O I+{.P K G L h i g |.&.f P f  .L G f $ J+O w.k c  .g L K G $.W k '.H.&._.%.P W O I+Z G ",
"A @.P f k Z P K G L G f l G g d  .P A L  .L I r C I K  .F +.G (.K r s s m Q r * M.@.P f k Z P K G L G f l G g d  .P A L  .L g l ",
"C r h m K r s m m i m m I I I C I I m I I i Q I }.@.Q h @.J s r K I m r K r m & c+r h m K r s m m i m m I I I C I I m I I i Q i ",
"h I I r K A K m h D (.A K g A M.r m 2.r r r r r I =.o R o U I K h h R m C C q | N.I I r K A K m h D (.A K g A M.r m 2.r r r r h ",
"K+/ ) ) L+K+L+L+L+_ / _ L+L+_ M.M+N+d+d+c+c+/ d+, O+> ' / _ L+L+_ P+P+_ c+c+) i.Q+_ _ c+_ d+g+' c+| | [ R+N.} | P , : > P | c+K+",
"> S+, n+P+S+N+d+T+U+/ c+V+~ ^ ) S+W+~ ] ] ] N+/ P+] ) O+' O+O+n+~ X+W+d+d+n+Y+Z+{ `+{  @P+] ~ ^ .@) d+O+) X.^ ^ u+_ ~ ] ) ) O+) ",
" .K g A I Q h I +@K L  .r @.=.h }.J ( Q J I I m }.h i I M.I h @.=.=.y h l !.-.w R C C !.U }.h n h h @.=.=.h h v v p R =.}.U.o p ",
"K  .A r L g l r L.A A K K G P g L L L %.L A A L I L I J m M L L L I J K G G m  .l  .g _.l A L K ( I A G G L r L M.}.M g I I K g ",
"K g I g L Y G G ~.K G g g Y g %.^.l G f _.K K B K G A A K K r s m h I f @@% f %.G f G F+A r i h I h m K G f Z f P _.E f E k F f ",
"Z E Z H.H.O...k #@G l F {.H.c '.k f f O H.f k N.G g L %.L P P L m J i L P $@_+} $.Z %@G G  .M.J L f P ..F  .I (.L L f G G #.Z l ",
"f l  .k g J f k &@$.{.E e g Y f &.@ |.A k '.G (.r g A A g L  .L K K K ( %.&.L |.}+B.W l $.A Z l g ..'.c f P ^+_+g I G %.Z } g  .",
"I  .K L K ( I h h.A G K g r I I I K M : f '.P }.K c L f g g k l Y  . .W F f !.L ..+.C 2.P {.N.G L l k *@k k f } &.G k f k _+W _.",
"!.h C Q h K m h +@o m R Q r I h }.!.h r M.P k f ^+ .G $.E O c c Z L I I L Y M f E B  .L I ( M.M r g f W P G K M K M g g I h I I ",
"'+z+;+-.v @.=.h b.'+)+-.v x h h U h n =.!.J J m h =.n i C B s K K I I h h Q B  .L K I m =.x y y+{+r.p h o o o y o =.o x r.{+y y ",
"x+'+;+{+>+p.q.y+-+'+'+-.p.p.{+-.>+;+y y r.y+v _ u.=.h I I (.M  .L r h !.C x S.y+-.x+=@)+-@;@z+)+=@>@{+r.x v -.y y =.h o n =.h h ",
", O+d+U+' N+N+> ,@_ ] ) N+) V+) O+V+O+d+O+d+) S+] ) S+P+S+/ .+Q+1 d+{ '@X+)@X+)@L+!@~@{@]@^@~@~@/@X+) S+' ) ) ) ~ N+.@> d+.@d+O+"};
