/* XPM */
static char * wall_xpm[] = {
"64 64 108 2",
"  	c #523A42",
". 	c #21151B",
"+ 	c #1C1117",
"@ 	c #26181E",
"# 	c #4B353D",
"$ 	c #1B1117",
"% 	c #503840",
"& 	c #301D27",
"* 	c #35222B",
"= 	c #4C353D",
"- 	c #432A36",
"; 	c #1F131A",
"> 	c #22151C",
", 	c #442A36",
"' 	c #3E2632",
") 	c #432936",
"! 	c #412734",
"~ 	c #3F2633",
"{ 	c #33202A",
"] 	c #34202A",
"^ 	c #422835",
"/ 	c #1F1319",
"( 	c #22141C",
"_ 	c #3D2531",
": 	c #402734",
"< 	c #39232E",
"[ 	c #3A232E",
"} 	c #3A232F",
"| 	c #402733",
"1 	c #311D27",
"2 	c #3F2632",
"3 	c #321E28",
"4 	c #35202A",
"5 	c #1E1218",
"6 	c #331F29",
"7 	c #281821",
"8 	c #291821",
"9 	c #311E27",
"0 	c #291922",
"a 	c #22161C",
"b 	c #1E1219",
"c 	c #22151B",
"d 	c #1D1218",
"e 	c #321F28",
"f 	c #503940",
"g 	c #4F3840",
"h 	c #513941",
"i 	c #2E1F25",
"j 	c #503941",
"k 	c #36222B",
"l 	c #321F29",
"m 	c #311E28",
"n 	c #432935",
"o 	c #412835",
"p 	c #412834",
"q 	c #422935",
"r 	c #281820",
"s 	c #38222D",
"t 	c #331E29",
"u 	c #271820",
"v 	c #291921",
"w 	c #26191F",
"x 	c #26181F",
"y 	c #25181E",
"z 	c #1D1117",
"A 	c #20141A",
"B 	c #291B21",
"C 	c #4D363E",
"D 	c #38262D",
"E 	c #503841",
"F 	c #4F3740",
"G 	c #281A21",
"H 	c #523942",
"I 	c #4D353E",
"J 	c #39262E",
"K 	c #39262D",
"L 	c #24161D",
"M 	c #23151C",
"N 	c #3C2531",
"O 	c #3C2431",
"P 	c #37212C",
"Q 	c #271720",
"R 	c #26171F",
"S 	c #27171F",
"T 	c #1D1118",
"U 	c #20131A",
"V 	c #2B1C22",
"W 	c #2A1C22",
"X 	c #21141B",
"Y 	c #2B1C23",
"Z 	c #35212B",
"` 	c #462C38",
" .	c #462D38",
"..	c #3B2630",
"+.	c #39252E",
"@.	c #38252E",
"#.	c #432B36",
"$.	c #402934",
"%.	c #452C38",
"&.	c #2F1D27",
"*.	c #321E29",
"=.	c #3E2532",
"-.	c #36212C",
";.	c #37212D",
">.	c #39222E",
",.	c #2B1A23",
"'.	c #35202B",
").	c #2C1B24",
"                                        . + + @                               # $ + + .               % & & & & & & & *         ",
"                                        . + + @                               # $ + + .               % & & & & & & & *         ",
"                                        . + + @                               # $ + + .               % & & & & & & & *         ",
"                                        . + + @                               = $ + + .               % & & & & & & & *         ",
"- - - - - - - - - - - - - - - - - - - - ; + + > , - - - - - - - - - - - - - - ' + + + ; - - - - - - - ) ! ! ! ! ! ! ! ~ { ] ] ] ",
"^ ^ ^ ^ ^ ^ ^ ^ ^ ^ ^ ^ ^ ^ ^ ^ ^ ^ ^ ^ / + + ( ^ ^ ^ ^ ^ ^ ^ ^ ^ ^ ^ ^ ^ ^ ^ _ + + + / ^ ^ ^ ^ ^ ^ ^ ^ ^ ^ ^ ^ ^ ^ ^ : & & & & ",
"^ ^ ^ ^ ^ ^ ^ ^ ^ ^ ^ ^ ^ ^ ^ ^ ^ ^ ^ ^ / + + ( ^ ^ ^ ^ ^ ^ ^ ^ ^ ^ ^ ^ ^ ^ ^ _ + + + / ^ ^ ^ ^ ^ ^ ^ ^ ^ ^ ^ ^ ^ ^ ^ : & & & & ",
"^ ^ ^ ^ ^ ^ ^ ^ ^ ^ ^ ^ ^ ^ ^ ^ ^ ^ ^ ^ / + + ( ^ ^ ^ ^ ^ ^ ^ ^ ^ ^ ^ ^ ^ ^ ^ _ + + + / ^ ^ ^ ^ ^ ^ ^ ^ ^ ^ ^ ^ ^ ^ ^ : & & & & ",
"^ ^ ^ ^ ^ ^ ^ ^ ^ ^ ^ ^ ^ ^ ^ ^ ^ ^ ^ ^ / + + ( ^ ^ ^ ^ ^ ^ ^ ! < < < [ ^ ^ ^ _ + + + / ^ ^ ^ : < < < } ^ ^ ^ ^ ^ ^ ^ ! } } } } ",
"^ ^ ^ ^ ^ ^ ^ ^ ^ ^ ^ ^ ^ ^ ^ ^ ^ ^ ^ ^ / + + ( ^ ^ ^ ^ ^ ^ ^ | & & & 1 ^ ^ ^ _ + + + / ^ ^ ^ 2 & & & 3 ^ ^ ^ ^ ^ ^ ^ ^ ^ ^ ^ ^ ",
"^ ^ ^ ^ ^ ^ ^ ^ ^ ^ ^ ^ ^ ^ ^ ^ ^ ^ ^ ^ / + + ( ^ ^ ^ ^ ^ ^ ^ | & & & 1 ^ ^ ^ _ + + + / ^ ^ ^ 2 & & & 3 ^ ^ ^ ^ ^ ^ ^ ^ ^ ^ ^ ^ ",
"^ ^ ^ ^ ^ ^ ^ ^ ^ ^ ^ ^ ^ ^ ^ ^ ^ ^ ^ ^ / + + ( ^ ^ ^ ^ ^ ^ ^ | & & & 1 ^ ^ ^ _ + + + / ^ ^ ^ 2 & & & 3 ^ ^ ^ ^ ^ ^ ^ ^ ^ ^ ^ ^ ",
"4 4 4 4 4 4 4 4 4 4 4 4 4 4 4 4 4 4 4 4 5 + + ; 4 4 4 4 4 4 4 6 7 7 7 8 4 4 4 9 + + + 5 4 4 4 3 7 7 7 0 4 4 4 4 4 4 4 4 4 4 4 4 ",
"+ + + + + + + + + + + + + + + + + + + + + + + + + + + + + + + + + + + + + + + + + + + + + + + + + + + + + + + + + + + + + + + + ",
"+ + + + + + + + + + + + + + + + + + + + + + + + + + + + + + + + + + + + + + + + + + + + + + + + + + + + + + + + + + + + + + + + ",
"+ + + + + + + + + + + + + + + + + + + + + + + + + + + + + + + + + + + + + + + + + + + + + + + + + + + + + + + + + + + + + + + + ",
"a a a a b 5 5 5 a a a a a a a c + + + + c a a c 5 5 5 5 a a a a a a a a a a a a a a a c + + + d a a a a a a a a a a a a a a a a ",
"        * & & e               % + + + + f     g & & & & h                             f + + + i                                 ",
"        * & & e               % + + + + j     g & & & & h                             j + + + i                                 ",
"        * & & e               % + + + + j     g & & & & h                             j + + + i                                 ",
"        k & & l               g + + + + %     g & & & m h                             % + + + i                                 ",
"n n n n ^ o o ^ n n n n n n n p + + + + p n n q o o o p l 3 3 ] ) n n n n n n n n n n p + + + r ) n n n n n n n n n n n n n n n ",
"^ ^ ^ ^ ^ ^ ^ ^ ^ ^ ^ ^ ^ ^ ^ : + + + + ! ^ ^ ^ ^ ^ ^ ^ 1 & & 6 ^ ^ ^ ^ ^ ^ ^ ^ ^ ^ ^ ! + + + r ^ ^ ^ ^ ^ ^ ^ ^ ^ ^ ^ ^ ^ ^ ^ ^ ",
"^ ^ ^ ^ ^ ^ ^ ^ ^ ^ ^ ^ ^ ^ ^ : + + + + ! ^ ^ ^ ^ ^ ^ ^ 1 & & 6 ^ ^ ^ ^ ^ ^ ^ ^ ^ ^ ^ ! + + + r ^ ^ ^ ^ ^ ^ ^ ^ ^ ^ ^ ^ ^ ^ ^ ^ ",
"^ ^ ^ ^ ^ ^ ^ ^ ^ ^ ^ ^ ^ ^ ^ : + + + + ! ^ ^ ^ ^ ^ ^ ^ 1 & & 6 ^ ^ ^ ^ ^ ^ ^ ^ ^ ^ ^ ! + + + r ^ ^ ^ ^ ^ ^ ^ ^ ^ ^ ^ ^ ^ ^ ^ ^ ",
"^ ^ ^ ^ ^ ^ ^ ^ ^ ^ ^ ^ ^ ^ ^ : + + + + ! ^ ^ ^ ^ ^ ^ ^ 1 & & 6 ^ ^ ^ ^ ^ ^ ^ ^ ^ ^ ^ ! + + + r ^ ^ ^ p s s s s ^ ^ ^ ^ ^ ^ ^ ^ ",
"^ ^ ^ ^ ^ ^ ^ ^ ^ ^ ^ ^ ^ ^ ^ : + + + + ! ^ ^ ^ ^ ^ ^ ^ 1 & & 6 ^ ^ ^ ^ ^ ^ ^ ^ ^ ^ ^ ! + + + r ^ ^ ^ ! & & & & o ^ ^ ^ ^ ^ ^ ^ ",
"^ ^ ^ ^ ^ ^ ^ ^ ^ ^ ^ ^ ^ ^ ^ : + + + + ! ^ ^ ^ ^ ^ ^ ^ 1 & & 6 ^ ^ ^ ^ ^ ^ ^ ^ ^ ^ ^ ! + + + r ^ ^ ^ ! & & & & o ^ ^ ^ ^ ^ ^ ^ ",
"^ ^ ^ ^ ^ ^ ^ ^ ^ ^ ^ ^ ^ ^ ^ : + + + + ! ^ ^ ^ ^ ^ ^ ^ 1 & & 6 ^ ^ ^ ^ ^ ^ ^ ^ ^ ^ ^ ! + + + r ^ ^ ^ ! & & & & o ^ ^ ^ ^ ^ ^ ^ ",
"t t t t t t t t t t t t t t t m + + + + 3 t t t t t t t u u u v t t t t t t t t t t t 3 + + + > t t t 3 u u u u 3 t t t t t t t ",
"+ + + + + + + + + + + + + + + + + + + + + + + + + + + + + + + + + + + + + + + + + + + + + + + + + + + + + + + + + + + + + + + + ",
"+ + + + + + + + + + + + + + + + + + + + + + + + + + + + + + + + + + + + + + + + + + + + + + + + + + + + + + + + + + + + + + + + ",
"+ + + + + + + + + + + + + + + + + + + + + + + + + + + + + + + + + + + + + + + + + + + + + + + + + + + + + + + + + + + + + + + + ",
"w w w w w w w w / / / / x w w w w w w w w w w w w w w w + + + 5 w w w w w w w y / / / ; w w w w w w w w w w w w + + + z A A A A ",
"              h & & & & %                               / + + B               C & & & 6                         A + + . D D D D ",
"              h & & & & %                               / + + B               C & & & l                         A + + . D D D D ",
"              h & & & & %                               / + + B               C & & & l                         A + + . D D D D ",
"h h h h h h h E & & & & F h h h h h h h h h h h h h h h / + + G H h h h h h h I & & & l h h h h h h h h h h h h A + + . J K K K ",
"^ ^ ^ ^ ^ ^ ^ ^ & & & & ! ^ ^ ^ ^ ^ ^ ^ ^ ^ ^ ^ ^ ^ ^ ^ 5 + + L ^ ^ ^ ^ ^ ^ ^ ~ & & & m ^ ^ ^ ^ ^ ^ ^ ^ ^ ^ ^ ^ b + + M ^ ^ ^ ^ ",
"^ ^ ^ ^ ^ ^ ^ o & & & & ! ^ ^ ^ ^ ^ ^ ^ ^ ^ ^ ^ ^ ^ ^ ^ 5 + + L ^ ^ ^ ^ ^ ^ ^ ~ & & & m ^ ^ ^ ^ ^ ^ ^ ^ ^ ^ ^ ^ b + + M ^ ^ ^ ^ ",
"^ ^ ^ ^ ^ ^ ^ o & & & & ! ^ ^ ^ ^ ^ ^ ^ ^ ^ ^ ^ ^ ^ ^ ^ 5 + + L ^ ^ ^ ^ ^ ^ ^ ~ & & & m ^ ^ ^ ^ ^ ^ ^ ^ ^ ^ ^ ^ b + + M ^ ^ ^ ^ ",
"^ ^ ^ ^ ^ ^ ^ o & & & & ! ^ ^ ^ ^ ^ ^ ^ ^ ^ ^ ^ ^ ^ ^ ^ 5 + + L ^ ^ ^ ^ ^ ^ ^ ~ & & & m ^ ^ ^ ^ ^ ^ ^ ^ ^ ^ ^ ^ b + + M ^ ^ ^ ^ ",
"^ ^ ^ ^ ^ ^ ^ ^ N O O N s P P s ^ ^ ^ ^ ^ ^ ^ ^ ^ ^ ^ ^ 5 + + L ^ ^ ^ ^ ^ ^ ^ ! O O O _ ^ ^ ^ ^ ^ ^ ^ ^ ^ ^ ^ ^ b + + M ^ ^ ^ ^ ",
"^ ^ ^ ^ ^ ^ ^ ^ ^ ^ ^ ^ 3 & & m ^ ^ ^ ^ ^ ^ ^ ^ ^ ^ ^ ^ 5 + + L ^ ^ ^ ^ ^ ^ ^ ^ ^ ^ ^ ^ ^ ^ ^ ^ ^ ^ ^ ^ ^ ^ ^ ^ b + + M ^ ^ ^ ^ ",
"^ ^ ^ ^ ^ ^ ^ ^ ^ ^ ^ ^ 3 & & m ^ ^ ^ ^ ^ ^ ^ ^ ^ ^ ^ ^ 5 + + L ^ ^ ^ ^ ^ ^ ^ ^ ^ ^ ^ ^ ^ ^ ^ ^ ^ ^ ^ ^ ^ ^ ^ ^ b + + M ^ ^ ^ ^ ",
"^ ^ ^ ^ ^ ^ ^ ^ ^ ^ ^ ^ 3 & & m ^ ^ ^ ^ ^ ^ ^ ^ ^ ^ ^ ^ 5 + + L ^ ^ ^ ^ ^ ^ ^ ^ ^ ^ ^ ^ ^ ^ ^ ^ ^ ^ ^ ^ ^ ^ ^ ^ b + + M ^ ^ ^ ^ ",
"& & & & & & & & & & & 1 Q R R S & & & & & & & & & & & & T + + U 1 & & & & & & & & & & & & & & & & & & & & & & & d + + / 1 & & & ",
"+ + + + + + + + + + + + + + + + + + + + + + + + + + + + + + + + + + + + + + + + + + + + + + + + + + + + + + + + + + + + + + + + ",
"+ + + + + + + + + + + + + + + + + + + + + + + + + + + + + + + + + + + + + + + + + + + + + + + + + + + + + + + + + + + + + + + + ",
"+ + + + + + + + + + + + + + + + + + + + + + + + + + + + + + + + + + + + + + + + + + + + + + + + + + + + + + + + + + + + + + + + ",
"V V V V V V V W + + + + W V V V V V V V X U U c Y V V V V V V V V V V V V V V B + + + d V V V V V V V W U U U A W V V V V V V V ",
"              h + + + $ g               6 & & Z                               = $ + + .               % & & & & h               ",
"              h + + + $ g               l & & Z                               # $ + + .               % & & & & h               ",
"              h + + + $ g               l & & Z                               # $ + + .               % & & & & h               ",
"              h + + + $ g               l & & Z                               = $ + + .               % & & & & h               ",
"` ` `  ...+.+.@.+ + + + #.` ` ` ` ` ` ` m & & 6  .` ` ` ` ` ` ` ` ` ` ` ` ` ` $.+ + + U ` ` ` ` ` ` ` %.2 2 2 2 %.` ` ` ` ` ` ` ",
"^ ^ ^ ^ 6 & & &.+ + + + | ^ ^ ^ ^ ^ ^ ^ m & & *.^ ^ ^ ^ ^ ^ ^ ^ ^ ^ ^ ^ ^ ^ ^ _ + + + / ^ ^ ^ ^ ^ ^ ^ ^ ^ ^ ^ ^ ^ ^ ^ ^ ^ ^ ^ ^ ",
"^ ^ ^ ^ 6 & & &.+ + + + | ^ ^ ^ ^ ^ ^ ^ m & & *.^ ^ ^ ^ ^ ^ ^ ^ ^ ^ ^ ^ ^ ^ ^ _ + + + / ^ ^ ^ ^ ^ ^ ^ ^ ^ ^ ^ ^ ^ ^ ^ ^ ^ ^ ^ ^ ",
"^ ^ ^ ^ 6 & & &.+ + + + | ^ ^ ^ ^ ^ ^ ^ m & & *.^ ^ ^ ^ ^ ^ ^ ^ ^ ^ ^ ^ ^ ^ ^ _ + + + / ^ ^ ^ ^ ^ ^ ^ ^ ^ ^ ^ ^ ^ ^ ^ ^ ^ ^ ^ ^ ",
"^ ^ ^ ^ =._ _ N + + + + | ^ ^ ^ ^ ^ ^ ^ =._ _ =.^ ^ ^ ^ ^ ^ ^ : -.-.-.-.^ ^ ^ _ + + + / ^ ^ ^ | -.-.-.;.^ ^ ^ ^ ^ ^ ^ ^ ^ ^ ^ ^ ",
"^ ^ ^ ^ ^ ^ ^ ! + + + + | ^ ^ ^ ^ ^ ^ ^ ^ ^ ^ ^ ^ ^ ^ ^ ^ ^ ^ | & & & 1 ^ ^ ^ _ + + + / ^ ^ ^ 2 & & & 3 ^ ^ ^ ^ ^ ^ ^ ^ ^ ^ ^ ^ ",
"^ ^ ^ ^ ^ ^ ^ ! + + + + | ^ ^ ^ ^ ^ ^ ^ ^ ^ ^ ^ ^ ^ ^ ^ ^ ^ ^ | & & & 1 ^ ^ ^ _ + + + / ^ ^ ^ 2 & & & 3 ^ ^ ^ ^ ^ ^ ^ ^ ^ ^ ^ ^ ",
"^ ^ ^ ^ ^ ^ ^ ! + + + + | ^ ^ ^ ^ ^ ^ ^ ^ ^ ^ ^ ^ ^ ^ ^ ^ ^ ^ | & & & 1 ^ ^ ^ _ + + + / ^ ^ ^ 2 & & & 3 ^ ^ ^ ^ ^ ^ ^ ^ ^ ^ ^ ^ ",
">.>.>.>.>.>.>.s + + + + P >.>.>.>.>.>.>.>.>.>.>.>.>.>.>.>.>.>.P ,.,.,.,.>.>.>.'.+ + + b >.>.>.-.,.,.,.).>.>.>.>.>.>.>.>.>.>.>.>."};
